<?xml version="1.0" encoding="utf-8"?>
<!-- Generator: Adobe Illustrator 28.1.0, SVG Export Plug-In . SVG Version: 6.00 Build 0)  -->
<svg version="1.1" id="Слой_1" xmlns="http://www.w3.org/2000/svg" xmlns:xlink="http://www.w3.org/1999/xlink" x="0px" y="0px"
	 viewBox="0 0 500 500" style="enable-background:new 0 0 500 500;" xml:space="preserve">
<style type="text/css">
	.st0{fill:#0072ED;}
</style>
<path class="st0" d="M122.76,208.87c13.61-46.95,57.05-82.89,110.77-90.06V69.96C152.61,80.47,87.89,136.65,71.96,208.87H122.76z"/>
<path class="st0" d="M389.7,208.87c-13.61-46.95-57.05-82.89-110.77-90.06V69.96c80.92,10.51,145.64,66.69,161.57,138.91H389.7z"/>
<path class="st0" d="M392.01,310.6c-13.61,46.95-57.05,82.89-110.77,90.06v48.85c80.92-10.51,145.64-66.69,161.57-138.91H392.01z"/>
<path class="st0" d="M122.76,310.6c13.61,46.95,57.05,82.89,110.77,90.06v48.85C152.61,438.99,87.89,382.82,71.96,310.6H122.76z"/>
<g>
	<polyline points="233.53,347.92 233.53,310.6 179.15,310.6 	"/>
	<path d="M179.15,310.6c0,0,9.52,24.61,54.39,37.32"/>
	<line x1="179.15" y1="310.6" x2="233.53" y2="347.92"/>
</g>
<path d="M179.15,208.87h54.39v-37.32C188.67,184.27,179.15,208.87,179.15,208.87z"/>
<path class="st0" d="M233.53,171.55"/>
<path class="st0" d="M179.15,208.87"/>
<g>
	<polyline points="278.93,171.55 278.93,208.87 333.32,208.87 	"/>
	<path d="M333.32,208.87c0,0-9.52-24.61-54.39-37.32"/>
	<line x1="333.32" y1="208.87" x2="278.93" y2="171.55"/>
</g>
<g>
	<polyline points="278.93,347.92 278.93,310.6 333.32,310.6 	"/>
	<path d="M333.32,310.6c0,0-9.52,24.61-54.39,37.32"/>
	<line x1="333.32" y1="310.6" x2="278.93" y2="347.92"/>
</g>
<g>
	<path d="M228.72,278.12l4.8-5.65c3.32,3.17,7.78,5.3,12.1,5.3c5.23,0,8.09-2.37,8.09-5.99c0-3.82-3-5.04-7.21-6.83l-6.35-2.75
		c-4.57-1.9-9.39-5.52-9.39-12.31c0-7.4,6.53-13.09,15.59-13.09c5.42,0,10.68,2.24,14.31,5.92l-4.23,5.23
		c-2.95-2.51-6.11-3.99-10.08-3.99c-4.4,0-7.27,2.06-7.27,5.45c0,3.65,3.54,5,7.38,6.57l6.26,2.63c5.52,2.3,9.39,5.79,9.39,12.52
		c0,7.53-6.25,13.8-16.67,13.8C239.17,284.92,233.12,282.45,228.72,278.12z"/>
	<path d="M270.6,237.64h8.24v46.43h-8.24V237.64z"/>
</g>
</svg>
